<?xml version="1.0" encoding="utf-8"?>
<!-- Generator: Adobe Illustrator 26.5.0, SVG Export Plug-In . SVG Version: 6.00 Build 0)  -->
<svg version="1.1"
	 id="Layer_1" xmlns:sodipodi="http://sodipodi.sourceforge.net/DTD/sodipodi-0.dtd" xmlns:inkscape="http://www.inkscape.org/namespaces/inkscape" xmlns:rdf="http://www.w3.org/1999/02/22-rdf-syntax-ns#" xmlns:svg="http://www.w3.org/2000/svg" xmlns:dc="http://purl.org/dc/elements/1.1/" xmlns:cc="http://creativecommons.org/ns#" inkscape:export-filename="nextcloud-logo-transparent.png" inkscape:export-xdpi="299.75104" inkscape:version="0.92.3 (2405546, 2018-03-11)" sodipodi:docname="nextcloud-logo-transparent.svg"
	 xmlns="http://www.w3.org/2000/svg" xmlns:xlink="http://www.w3.org/1999/xlink" x="0px" y="0px" viewBox="0 0 141.5 99.6"
	 style="enable-background:new 0 0 141.5 99.6;" xml:space="preserve">
<style type="text/css">
	.st0{fill:#0082C9;}
</style>
<sodipodi:namedview  bordercolor="#666666" borderopacity="1" fit-margin-bottom="10" fit-margin-left="10" fit-margin-right="10" fit-margin-top="10" gridtolerance="10" guidetolerance="10" id="namedview16" inkscape:bbox-nodes="true" inkscape:bbox-paths="true" inkscape:current-layer="Layer_1" inkscape:cx="-34.704986" inkscape:cy="33.920203" inkscape:pageopacity="0" inkscape:pageshadow="2" inkscape:snap-bbox="true" inkscape:snap-bbox-edge-midpoints="true" inkscape:snap-bbox-midpoints="true" inkscape:snap-page="true" inkscape:window-height="1046" inkscape:window-maximized="1" inkscape:window-width="1920" inkscape:window-x="0" inkscape:window-y="34" inkscape:zoom="2.8284271" objecttolerance="10" pagecolor="#ffffff" showgrid="false" units="px">
	</sodipodi:namedview>
<path id="path1052" inkscape:connector-curvature="0" inkscape:export-filename="Nextcloud Hub logo variants.png" inkscape:export-xdpi="300" inkscape:export-ydpi="300" class="st0" d="
	M70.8,10c-12.6,0-23.3,8.5-26.6,20.1C41.4,24,35.2,19.7,28,19.7c-9.9,0-18,8.1-18,18c0,9.9,8.1,18,18,18c7.2,0,13.4-4.3,16.3-10.4
	c3.3,11.6,14,20.1,26.6,20.1c12.5,0,23.1-8.4,26.5-19.8c2.9,6,9.1,10.2,16.2,10.2c9.9,0,18-8.1,18-18c0-9.9-8.1-18-18-18
	c-7.1,0-13.2,4.2-16.2,10.2C94,18.4,83.3,10,70.8,10z M70.8,20.6c9.5,0,17.1,7.6,17.1,17.1c0,9.5-7.6,17.1-17.1,17.1
	c-9.5,0-17.1-7.6-17.1-17.1C53.7,28.1,61.3,20.6,70.8,20.6z M28,30.2c4.2,0,7.4,3.3,7.4,7.4c0,4.2-3.3,7.4-7.4,7.4
	c-4.2,0-7.4-3.3-7.4-7.4C20.6,33.5,23.8,30.2,28,30.2z M113.5,30.2c4.2,0,7.4,3.3,7.4,7.4c0,4.2-3.3,7.4-7.4,7.4
	c-4.2,0-7.4-3.3-7.4-7.4C106.1,33.5,109.3,30.2,113.5,30.2z"/>
<path id="path1174" inkscape:connector-curvature="0" class="st0" d="M22.7,73.6c-0.4,0-0.5,0.2-0.5,0.6v14.6c0,0.4,0.2,0.5,0.5,0.5
	h0.4c0.4,0,0.5-0.2,0.5-0.5V76.7L31.5,89c0,0.1,0.1,0.1,0.1,0.1c0,0,0,0,0,0c0,0,0.1,0,0.1,0.1c0,0,0,0,0.1,0c0,0,0,0,0,0
	c0.1,0,0.1,0,0.2,0h0.4c0.4,0,0.5-0.2,0.5-0.5V74.2c0-0.4-0.2-0.6-0.5-0.6h-0.4c-0.4,0-0.6,0.2-0.6,0.6v12.1L23.6,74
	c0,0-0.1-0.1-0.1-0.1c-0.1-0.1-0.2-0.2-0.4-0.2L22.7,73.6z M118,73.8c-0.4,0-0.2,0.2-0.2,0.6v5c0,0.5,0,0.9,0,0.9h0
	c0,0-1-2.2-3.6-2.2c-2.9,0-5,2.3-4.9,5.7c0,3.4,1.9,5.8,4.8,5.8c2.9,0,3.8-2.3,3.8-2.3h0.1c0,0-0.1,0.3-0.1,0.7v0.9
	c0,0.4,0.2,0.5,0.6,0.5h0.4c0.4,0,0.5-0.2,0.5-0.6V74.4c0-0.4-0.6-0.6-0.9-0.6H118z M79,73.9c-0.4,0-0.1,0.2-0.1,0.6v12.3
	c0,2.4,1.6,2.7,2.5,2.7c0.4,0,0.6-0.2,0.6-0.6v-0.4c0-0.4-0.2-0.5-0.5-0.5c-0.5-0.1-1.2-0.2-1.2-1.6v-12c0-0.4-0.6-0.6-0.9-0.6
	L79,73.9z M61,75.2c-0.4,0-0.6,0.2-0.6,0.6v2.6v1.3v5.7c0,2.6,1.5,4.1,3.9,4.1c0.5,0,0.6-0.1,0.6-0.5v-0.3c0-0.4-0.1-0.5-0.6-0.6
	c-0.9-0.1-2.4-0.4-2.4-2.9v-5.5h2.3c0.4,0,0.6-0.1,0.6-0.5v-0.2c0-0.4-0.2-0.6-0.6-0.6h-2.3v-2.6c0-0.4-0.1-0.6-0.5-0.6L61,75.2z
	 M41.1,78c-3,0-5.4,2.2-5.5,5.8c0,3.4,2.5,5.8,5.8,5.8c1.8,0,3.1-0.8,3.7-1.2c0.3-0.2,0.3-0.5,0.2-0.7L45,87.4
	c-0.2-0.3-0.4-0.4-0.7-0.2c-0.5,0.4-1.5,1-2.9,1c-2.3,0-4.2-1.6-4.3-4.4h8c0.3,0,0.6-0.3,0.6-0.6C45.7,80.1,44,78,41.1,78z M72.2,78
	c-3.3,0-5.8,2.4-5.8,5.8c0,3.4,2.5,5.8,5.8,5.8c2,0,3.4-1,3.9-1.4c0.3-0.3,0.3-0.5,0.1-0.8l-0.1-0.2c-0.2-0.3-0.4-0.4-0.7-0.2
	c-0.5,0.5-1.6,1.2-3.1,1.2c-2.4,0-4.3-1.8-4.3-4.4c0-2.7,1.9-4.5,4.3-4.5c1.3,0,2.3,0.7,2.8,1c0.3,0.2,0.6,0.2,0.8-0.1l0.2-0.3
	c0.3-0.3,0.2-0.6-0.1-0.8C75.3,78.8,74.1,78,72.2,78L72.2,78z M89.2,78c-3.2,0-5.8,2.5-5.8,5.7c0,3.3,2.6,5.8,5.8,5.8
	c3.2,0,5.8-2.5,5.8-5.8C95,80.5,92.4,78,89.2,78z M56.7,78.2c-0.1,0-0.2,0.1-0.4,0.2l-2,2.4l-1.5,1.8l-2.3-2.7l-1.2-1.5
	c-0.1-0.1-0.2-0.2-0.4-0.2c-0.1,0-0.3,0-0.4,0.2l-0.3,0.3c-0.3,0.2-0.3,0.5,0,0.7l2,2.4l1.7,2l-2.5,2.9c0,0,0,0,0,0l-1.2,1.5
	c-0.2,0.3-0.2,0.6,0.1,0.8l0.3,0.3c0.3,0.2,0.5,0.2,0.7-0.1l2-2.4l1.5-1.8l2.3,2.7c0,0,0,0,0,0l1.2,1.5c0.2,0.3,0.5,0.3,0.8,0.1
	l0.3-0.3c0.3-0.2,0.3-0.5,0-0.7l-2-2.4l-1.7-2l2.5-2.9c0,0,0,0,0,0l1.2-1.5c0.2-0.3,0.2-0.6-0.1-0.8l-0.3-0.3
	C57,78.2,56.8,78.2,56.7,78.2L56.7,78.2z M98,78.3c-0.4,0-0.5,0.2-0.5,0.6v6.5c0,2.9,2.1,4.3,4.7,4.3s4.7-1.4,4.7-4.3v-6.5
	c0.1-0.4-0.1-0.6-0.5-0.6H106c-0.4,0-0.6,0.2-0.6,0.6v6.1c0,1.7-1.1,3.3-3.3,3.3c-2.1,0-3.3-1.6-3.3-3.3v-6.1c0-0.4-0.2-0.6-0.6-0.6
	L98,78.3z M41,79.3c1.6,0,3,1.2,3.1,3.5h-6.9C37.5,80.5,39.1,79.3,41,79.3z M89.2,79.4c2.4,0,4.3,1.9,4.3,4.4c0,2.6-1.9,4.5-4.3,4.5
	c-2.4,0-4.3-2-4.3-4.5C84.9,81.3,86.8,79.4,89.2,79.4z M114.3,79.4c2.4,0,3.5,2.2,3.5,4.4c0,3.2-1.7,4.5-3.6,4.5
	c-2.1,0-3.5-1.8-3.5-4.5C110.8,81,112.4,79.4,114.3,79.4z"/>
</svg>
